<?xml version="1.0" standalone="no"?>
<!DOCTYPE svg PUBLIC "-//W3C//DTD SVG 20010904//EN"
 "http://www.w3.org/TR/2001/REC-SVG-20010904/DTD/svg10.dtd">
<svg version="1.0" xmlns="http://www.w3.org/2000/svg"
 width="1000.000000pt" height="1000.000000pt" viewBox="0 0 1000.000000 1000.000000"
 preserveAspectRatio="xMidYMid meet">
<metadata>
Created by potrace 1.14, written by Peter Selinger 2001-2017
</metadata>
<g transform="translate(0.000000,1000.000000) scale(0.100000,-0.100000)"
fill="#000000" stroke="none">
<path d="M6410 9930 c0 -5 -7 -7 -15 -4 -9 4 -15 0 -15 -9 0 -8 -6 -17 -12
-20 -7 -2 -1 -8 15 -12 15 -4 27 -14 27 -24 0 -13 2 -14 9 -1 6 8 7 18 5 22
-3 4 4 8 15 8 25 0 26 -6 6 -26 -8 -9 -15 -26 -15 -39 0 -13 -4 -27 -10 -30
-14 -9 -12 -45 3 -45 8 0 7 -4 -3 -11 -12 -8 -12 -12 -2 -16 10 -4 10 -8 1
-19 -9 -11 -8 -14 8 -14 16 0 19 6 16 33 -3 22 -1 28 5 18 7 -9 12 -10 16 -2
8 13 46 15 46 2 0 -5 11 -11 25 -13 14 -3 25 -1 25 4 0 5 7 3 15 -6 21 -20 19
-25 -7 -20 -13 2 -17 1 -10 -2 24 -11 -7 -34 -39 -27 -17 3 -36 0 -46 -8 -15
-11 -16 -11 -5 1 18 21 15 35 -5 19 -9 -8 -24 -13 -35 -11 -10 2 -18 0 -18 -5
0 -12 20 -40 20 -29 0 6 7 1 16 -10 8 -10 13 -14 10 -7 -4 7 4 6 24 -3 16 -9
30 -17 30 -19 0 -3 -15 -9 -32 -14 -31 -9 -30 -9 22 -11 30 -1 66 -5 80 -10
23 -7 21 -8 -17 -15 -35 -6 -41 -10 -33 -24 6 -11 3 -22 -12 -38 -12 -13 -16
-23 -10 -23 7 0 12 5 12 10 0 6 15 10 33 10 29 -1 31 -2 14 -14 -15 -12 -17
-18 -7 -36 15 -28 5 -59 -13 -41 -9 9 -9 14 2 20 11 7 9 11 -9 21 -20 11 -22
10 -17 -3 3 -9 -1 -21 -8 -27 -8 -7 -13 -16 -10 -20 3 -5 -1 -11 -7 -14 -7 -4
-3 -4 10 -2 12 2 20 1 17 -4 -3 -4 5 -10 16 -13 15 -4 19 -2 15 9 -4 9 -2 12
5 8 6 -4 15 0 20 7 6 10 9 8 9 -10 0 -21 3 -23 30 -17 26 5 30 3 29 -17 0 -21
-1 -21 -8 -2 -8 19 -8 19 -19 -1 -8 -16 -8 -26 3 -41 11 -15 11 -21 2 -20 -6
0 -25 -1 -42 -2 -23 -1 -27 -3 -15 -11 12 -8 10 -10 -8 -10 -13 0 -21 4 -18 8
2 4 -4 8 -15 8 -10 0 -19 -7 -19 -16 0 -13 -1 -13 -10 0 -9 14 -15 7 -11 -14
1 -5 -6 -14 -16 -21 -21 -15 -29 -71 -13 -90 11 -13 4 -45 -11 -45 -5 0 -9 -8
-9 -17 0 -11 3 -14 8 -7 11 17 60 26 65 11 3 -7 6 -5 6 6 1 11 9 17 24 18 l22
0 -22 9 c-24 10 -22 40 3 40 17 0 18 -17 2 -23 -8 -3 -6 -6 5 -6 10 -1 27 -10
38 -20 18 -16 18 -21 6 -32 -16 -16 -3 -34 29 -41 10 -3 -6 -5 -36 -5 -39 -1
-58 4 -67 16 -11 15 -12 15 -18 -1 -7 -17 -139 -18 -2489 -18 -2754 0 -2538 5
-2686 -68 -54 -26 -97 -58 -151 -112 -82 -81 -118 -135 -158 -239 l-26 -66 -5
-1471 -5 -1471 -125 73 c-191 112 -281 161 -325 179 -22 9 -101 47 -175 85
-114 57 -278 130 -295 130 -3 0 -4 -1180 -2 -2622 3 -2975 -8 -2649 92 -2853
93 -192 228 -327 420 -420 61 -30 139 -62 175 -72 62 -17 251 -18 4255 -18
l4190 0 85 29 c313 105 521 313 626 626 l29 85 3 485 3 485 -156 115 c-86 63
-171 127 -188 142 -18 15 -54 40 -82 54 -27 15 -96 59 -153 98 -57 39 -156
105 -220 147 l-117 77 -3 212 -2 212 42 -24 c24 -14 81 -46 128 -72 47 -26
106 -60 133 -76 84 -52 290 -160 304 -160 8 0 77 -29 155 -65 77 -36 144 -65
149 -65 5 0 9 9 9 20 0 24 -76 110 -97 110 -22 0 -128 98 -489 456 l-334 330
0 94 0 94 88 -84 c48 -46 248 -241 444 -433 196 -193 364 -355 373 -359 14 -8
15 300 13 3289 l-3 3298 -23 74 c-101 326 -321 549 -639 648 l-88 28 -1387 2
c-880 2 -1388 -1 -1388 -7z m77 -71 c-6 -10 -15 -15 -20 -10 -12 12 3 40 18
34 11 -4 12 -9 2 -24z m34 -32 c-10 -9 -11 -8 -5 6 3 10 9 15 12 12 3 -3 0
-11 -7 -18z m-61 -7 c0 -5 -4 -10 -10 -10 -5 0 -10 5 -10 10 0 6 5 10 10 10 6
0 10 -4 10 -10z m87 -31 c-14 -8 -22 -8 -30 0 -8 8 -3 11 19 11 25 -1 27 -2
11 -11z m-42 -149 c3 -5 1 -10 -4 -10 -6 0 -11 5 -11 10 0 6 2 10 4 10 3 0 8
-4 11 -10z m12 -506 c-3 -3 -12 -4 -19 -1 -8 3 -5 6 6 6 11 1 17 -2 13 -5z
m-12 -34 c3 -5 1 -10 -4 -10 -6 0 -11 5 -11 10 0 6 2 10 4 10 3 0 8 -4 11 -10z
m-1625 -4638 c0 -928 -4 -1414 -11 -1488 -28 -274 -120 -489 -288 -666 -90
-96 -178 -160 -306 -223 -214 -105 -406 -141 -710 -132 -259 8 -408 40 -594
130 -357 172 -576 518 -598 945 l-6 112 327 0 326 0 0 -37 c2 -214 126 -431
293 -513 182 -90 423 -92 605 -5 127 60 214 162 276 325 21 55 21 56 24 1493
l2 1437 330 0 330 0 0 -1378z m2300 1364 c503 -67 860 -349 984 -778 52 -180
59 -453 17 -639 -77 -339 -296 -621 -586 -755 -41 -19 -75 -36 -75 -39 0 -2
167 -364 370 -805 204 -440 370 -803 370 -805 0 -3 -161 -5 -357 -5 l-358 0
-329 753 c-181 413 -334 758 -339 765 -8 9 -63 12 -241 10 l-231 -3 -3 -762
-2 -763 -325 0 -325 0 0 1920 0 1920 663 0 c510 0 686 -4 767 -14z"/>
<path d="M6402 4683 l3 -578 330 1 c278 0 341 3 399 17 202 50 340 184 392
377 23 87 23 263 1 348 -29 108 -65 172 -141 248 -49 49 -92 81 -139 103 -115
55 -166 61 -525 61 l-322 0 2 -577z"/>
<path d="M6495 9441 c-3 -5 -1 -12 5 -16 5 -3 10 1 10 9 0 18 -6 21 -15 7z"/>
<path d="M6465 9360 c-3 -5 1 -10 10 -10 9 0 13 5 10 10 -3 6 -8 10 -10 10 -2
0 -7 -4 -10 -10z"/>
<path d="M6535 9050 c-3 -5 1 -10 9 -10 9 0 16 5 16 10 0 6 -4 10 -9 10 -6 0
-13 -4 -16 -10z"/>
</g>
</svg>
